<?xml version="1.0" standalone="no"?>
<!DOCTYPE svg PUBLIC "-//W3C//DTD SVG 20010904//EN"
 "http://www.w3.org/TR/2001/REC-SVG-20010904/DTD/svg10.dtd">
<svg version="1.0" xmlns="http://www.w3.org/2000/svg"
 width="260.000000pt" height="260.000000pt" viewBox="0 0 260.000000 260.000000"
 preserveAspectRatio="xMidYMid meet">
<metadata>
Created by potrace 1.11, written by Peter Selinger 2001-2013
</metadata>
<g transform="translate(0.000000,260.000000) scale(0.100000,-0.100000)"
fill="#000000" stroke="none">
<path d="M995 2326 c-228 -36 -428 -137 -586 -295 -171 -170 -272 -384 -300
-634 -34 -306 92 -649 313 -852 108 -99 149 -134 156 -135 4 0 48 -20 97 -45
252 -123 499 -145 762 -69 276 80 524 291 644 549 17 36 34 65 37 65 4 0 60
-11 124 -25 64 -14 149 -28 187 -31 63 -6 71 -5 71 10 0 27 -48 64 -111 87
-32 12 -68 32 -80 45 -16 17 -37 25 -79 30 -79 9 -82 12 -67 59 7 25 12 106
12 210 0 153 -3 179 -27 265 -118 424 -455 715 -891 770 -101 12 -160 12 -262
-4z m387 -45 c458 -120 768 -512 771 -976 0 -105 -17 -250 -32 -259 -6 -4
-194 8 -310 20 -54 6 -57 8 -175 122 -119 115 -224 187 -396 272 -25 12 -83
46 -130 76 -47 29 -99 56 -117 60 -22 4 -33 13 -37 30 -8 30 -67 130 -111 188
-19 26 -35 52 -35 60 0 7 -7 19 -15 26 -8 7 -15 18 -15 25 0 8 -4 15 -10 17
-5 2 -11 42 -12 90 -3 82 -4 86 -21 71 -16 -15 -16 -14 -6 15 22 63 3 49 -71
-50 -41 -56 -109 -137 -152 -180 -42 -43 -78 -82 -80 -88 -2 -6 -26 -27 -53
-48 -68 -51 -69 -68 -7 -94 46 -19 50 -24 55 -61 3 -22 16 -60 29 -86 20 -38
23 -52 15 -83 -13 -53 14 -176 57 -263 55 -111 140 -190 285 -264 66 -34 127
-61 135 -61 22 0 40 -42 32 -73 -6 -27 -96 -149 -155 -210 -55 -58 -81 -69
-154 -61 -55 5 -64 4 -81 -15 l-19 -20 -31 21 c-17 12 -59 49 -94 82 -281 268
-384 685 -259 1051 54 157 133 283 251 400 152 150 324 240 539 281 101 19
309 12 409 -15z m694 -1364 c16 -16 -92 -199 -174 -295 -115 -135 -331 -266
-517 -314 -128 -33 -361 -33 -484 0 -98 27 -186 61 -250 99 l-46 27 30 8 c40
12 198 2 259 -16 l48 -15 -23 25 c-12 13 -33 24 -45 24 -35 0 -54 11 -54 30 0
22 81 130 178 238 l74 82 75 0 c70 0 77 -2 103 -30 48 -51 46 -71 -22 -213
-34 -70 -71 -135 -81 -145 -14 -13 -37 -17 -93 -17 -45 0 -78 -5 -86 -13 -6
-6 -18 -12 -26 -12 -7 0 -10 -5 -7 -10 4 -6 1 -18 -7 -27 -11 -15 -11 -16 5
-10 55 20 211 50 267 50 89 1 172 -7 189 -17 8 -5 7 1 -4 18 -19 29 -16 28
-101 26 -44 -1 -63 3 -67 13 -7 19 22 97 76 203 53 102 56 120 26 158 l-20 26
39 0 c26 0 69 15 128 44 107 53 123 58 194 63 109 8 145 8 170 0 20 -7 22 -6
8 3 -17 10 -24 40 -13 52 6 6 242 -46 251 -55z"/>
</g>
</svg>
